<svg id="Capa_1" enable-background="new 0 0 512 512" height="512" viewBox="0 0 512 512" width="512" xmlns="http://www.w3.org/2000/svg"><g><path d="m181.663 365.019c-5.523 0-10-4.477-10-10v-219.227c0-5.523 4.477-10 10-10h18.617v-47.02c0-8.284-6.716-15-15-15h-162.78c-8.284 0-15 6.716-15 15v364.456c0 2.761 2.239 5 5 5h182.78c2.761 0 5-2.239 5-5v-78.209z" fill="#596c76"/><g><path d="m38.22 443.228v-364.456c0-8.284 6.716-15 15-15h-30.72c-8.284 0-15 6.716-15 15v364.456c0 2.761 2.239 5 5 5h30.72c-2.761 0-5-2.239-5-5z" fill="#465a61"/></g><path d="m62.78 226.556h82.22v221.672h-82.22z" fill="#8d9ca8"/><path d="m62.78 278h31v170.228h-31z" fill="#7a8c98"/><path d="m62.78 226.556h82.22v51.444h-82.22z" fill="#01d0fb"/><path d="m62.78 226.556h31v51.444h-31z" fill="#01c0fa"/><path d="m7.5 161.26h164.163v65.296h-164.163z" fill="#8d9ca8"/><g><path d="m7.5 161.26h30.72v65.296h-30.72z" fill="#7a8c98"/></g><g><path d="m307.405 365.019h61.353v48.104h-61.353z" fill="#8d9ca8"/><path d="m307.405 365.019h30.595v48.104h-30.595z" fill="#7a8c98"/><g><path d="m494.5 365.019h-312.837c-5.523 0-10-4.477-10-10v-219.227c0-5.523 4.477-10 10-10h312.837c5.523 0 10 4.477 10 10v219.227c0 5.523-4.477 10-10 10z" fill="#d9e7ec"/></g><g><path d="m218 355.019v-15h-18.337c-1.657 0-3-1.343-3-3v-183.227c0-1.657 1.343-3 3-3h18.337v-15c0-5.523 4.477-10 10-10h-46.337c-5.523 0-10 4.477-10 10v219.227c0 5.523 4.477 10 10 10h46.337c-5.523 0-10-4.477-10-10z" fill="#c5d3dd"/></g><g><path d="m196.663 337.019v-183.227c0-1.657 1.343-3 3-3h276.837c1.657 0 3 1.343 3 3v183.227c0 1.657-1.343 3-3 3h-276.837c-1.657 0-3-1.344-3-3z" fill="#fed402"/></g><g><path d="m245 337.019v-183.227c0-1.657 1.343-3 3-3h-48.337c-1.657 0-3 1.343-3 3v183.227c0 1.657 1.343 3 3 3h48.337c-1.657 0-3-1.344-3-3z" fill="#fac600"/></g><g><path d="m419 448.228h-161.837v-10.106c0-13.807 11.193-25 25-25h111.837c13.807 0 25 11.193 25 25z" fill="#d9e7ec"/></g><g><path d="m329 413.122h-46.837c-13.807 0-25 11.193-25 25v10.106h46.837v-10.106c0-13.807 11.193-25 25-25z" fill="#c5d3dd"/></g><g><path d="m504.5 448.228h-60.351v-10.106c0-13.807 11.193-25 25-25h10.351c13.807 0 25 11.193 25 25z" fill="#8d9ca8"/></g><g><path d="m486.25 414.052c-2.148-.601-4.41-.93-6.75-.93h-10.351c-13.807 0-25 11.193-25 25v10.106h23.851v-10.106c0-11.467 7.723-21.124 18.25-24.07z" fill="#7a8c98"/></g><g><g><g><path d="m246.415 317h-22c-1.657 0-3-1.343-3-3v-22c0-1.657 1.343-3 3-3h22c1.657 0 3 1.343 3 3v22c0 1.657-1.343 3-3 3z" fill="#fff"/></g></g><g><g><path d="m297.748 317h-22c-1.657 0-3-1.343-3-3v-22c0-1.657 1.343-3 3-3h22c1.657 0 3 1.343 3 3v22c0 1.657-1.343 3-3 3z" fill="#01d0fb"/></g></g><g><g><path d="m349.081 317h-22c-1.657 0-3-1.343-3-3v-22c0-1.657 1.343-3 3-3h22c1.657 0 3 1.343 3 3v22c0 1.657-1.343 3-3 3z" fill="#fff"/></g></g><g><g><path d="m400.415 317h-22c-1.657 0-3-1.343-3-3v-22c0-1.657 1.343-3 3-3h22c1.657 0 3 1.343 3 3v22c0 1.657-1.343 3-3 3z" fill="#01d0fb"/></g></g><g><g><path d="m451.748 317h-22c-1.657 0-3-1.343-3-3v-22c0-1.657 1.343-3 3-3h22c1.657 0 3 1.343 3 3v22c0 1.657-1.343 3-3 3z" fill="#fff"/></g></g></g></g><g><circle cx="103.89" cy="333.68" fill="#01d0fb" r="17.958"/></g><g><path d="m101 333.68c0-7.224 4.275-13.435 10.424-16.285-2.294-1.063-4.84-1.673-7.534-1.673-9.918 0-17.958 8.04-17.958 17.958s8.04 17.958 17.958 17.958c2.694 0 5.241-.61 7.534-1.673-6.149-2.85-10.424-9.061-10.424-16.285z" fill="#01c0fa"/></g><g><path d="m67 126h-26c-1.657 0-3-1.343-3-3v-26c0-1.657 1.343-3 3-3h26c1.657 0 3 1.343 3 3v26c0 1.657-1.343 3-3 3z" fill="#fff"/></g><g><path d="m53 123v-26c0-1.657 1.343-3 3-3h-15c-1.657 0-3 1.343-3 3v26c0 1.657 1.343 3 3 3h15c-1.657 0-3-1.343-3-3z" fill="#e8edf2"/></g><g><path d="m494.5 372.519c9.649 0 17.5-7.851 17.5-17.5v-219.227c0-9.649-7.851-17.5-17.5-17.5h-286.721v-39.52c0-12.407-10.094-22.5-22.5-22.5h-162.779c-12.406 0-22.5 10.093-22.5 22.5v364.456c0 6.893 5.607 12.5 12.5 12.5h492c4.143 0 7.5-3.358 7.5-7.5v-10.105c0-17.92-14.579-32.5-32.5-32.5h-10.351c-17.921 0-32.5 14.58-32.5 32.5v2.605h-10.149v-2.605c0-17.92-14.579-32.5-32.5-32.5h-17.742v-33.104zm-42.851 65.604c0-9.649 7.851-17.5 17.5-17.5h10.351c9.649 0 17.5 7.851 17.5 17.5v2.605h-45.351zm-436.649-269.363h100c4.143 0 7.5-3.358 7.5-7.5s-3.357-7.5-7.5-7.5h-100v-74.988c0-4.136 3.364-7.5 7.5-7.5h162.779c4.136 0 7.5 3.364 7.5 7.5v39.52h-11.116c-9.649 0-17.5 7.851-17.5 17.5v17.968h-14.163c-4.143 0-7.5 3.358-7.5 7.5s3.357 7.5 7.5 7.5h14.163v17.648h-124.384c-4.143 0-7.5 3.358-7.5 7.5s3.357 7.5 7.5 7.5h124.384v17.648h-149.163zm122.5 65.296v36.444h-67.221v-36.444zm-82.221 206.672h-40.279v-206.672h40.279zm137.5 0h-40.279v-33.728c0-4.142-3.357-7.5-7.5-7.5s-7.5 3.358-7.5 7.5v33.728h-67.221v-155.228h67.221v86.5c0 4.142 3.357 7.5 7.5 7.5s7.5-3.358 7.5-7.5v-137.944h11.663v120.962c0 9.649 7.851 17.5 17.5 17.5h11.116zm56.884-2.605v2.605h-41.884v-68.209h92.125v33.104h-17.741c-17.921 0-32.5 14.579-32.5 32.5zm144.337-17.5c9.649 0 17.5 7.851 17.5 17.5v2.605h-146.837v-2.605c0-9.649 7.851-17.5 17.5-17.5zm-79.096-15v-33.104h46.354v33.104zm-133.241-48.104c-1.379 0-2.5-1.122-2.5-2.5v-219.227c0-1.378 1.121-2.5 2.5-2.5h312.837c1.379 0 2.5 1.122 2.5 2.5v219.227c0 1.378-1.121 2.5-2.5 2.5z"/><path d="m476.5 143.292h-276.837c-5.79 0-10.5 4.71-10.5 10.5v183.227c0 5.79 4.71 10.5 10.5 10.5h276.837c5.79 0 10.5-4.71 10.5-10.5v-109.019c0-4.142-3.357-7.5-7.5-7.5s-7.5 3.358-7.5 7.5v104.519h-267.837v-174.227h267.837v34.708c0 4.142 3.357 7.5 7.5 7.5s7.5-3.358 7.5-7.5v-39.208c0-5.79-4.71-10.5-10.5-10.5z"/><path d="m224.415 281.5c-5.79 0-10.5 4.71-10.5 10.5v22c0 5.79 4.71 10.5 10.5 10.5h22c5.79 0 10.5-4.71 10.5-10.5v-22c0-5.79-4.71-10.5-10.5-10.5zm17.5 28h-13v-13h13z"/><path d="m275.748 281.5c-5.79 0-10.5 4.71-10.5 10.5v22c0 5.79 4.71 10.5 10.5 10.5h22c5.79 0 10.5-4.71 10.5-10.5v-22c0-5.79-4.71-10.5-10.5-10.5zm17.5 28h-13v-13h13z"/><path d="m327.081 281.5c-5.79 0-10.5 4.71-10.5 10.5v22c0 5.79 4.71 10.5 10.5 10.5h22c5.79 0 10.5-4.71 10.5-10.5v-22c0-5.79-4.71-10.5-10.5-10.5zm17.5 28h-13v-13h13z"/><path d="m378.415 281.5c-5.79 0-10.5 4.71-10.5 10.5v22c0 5.79 4.71 10.5 10.5 10.5h22c5.79 0 10.5-4.71 10.5-10.5v-22c0-5.79-4.71-10.5-10.5-10.5zm17.5 28h-13v-13h13z"/><path d="m429.748 281.5c-5.79 0-10.5 4.71-10.5 10.5v22c0 5.79 4.71 10.5 10.5 10.5h22c5.79 0 10.5-4.71 10.5-10.5v-22c0-5.79-4.71-10.5-10.5-10.5zm17.5 28h-13v-13h13z"/><path d="m103.89 308.222c-14.037 0-25.458 11.42-25.458 25.458s11.421 25.458 25.458 25.458c14.038 0 25.459-11.42 25.459-25.458s-11.421-25.458-25.459-25.458zm0 35.917c-5.767 0-10.458-4.692-10.458-10.458s4.691-10.458 10.458-10.458c5.768 0 10.459 4.692 10.459 10.458s-4.692 10.458-10.459 10.458z"/><circle cx="103.89" cy="389.042" r="7.5"/><circle cx="103.89" cy="413.5" r="7.5"/><path d="m67 86.5h-26c-5.79 0-10.5 4.71-10.5 10.5v26c0 5.79 4.71 10.5 10.5 10.5h26c5.79 0 10.5-4.71 10.5-10.5v-26c0-5.79-4.71-10.5-10.5-10.5zm-4.5 32h-17v-17h17z"/></g></g></svg>