<svg id="Capa_1" enable-background="new 0 0 512 512" height="512" viewBox="0 0 512 512" width="512" xmlns="http://www.w3.org/2000/svg"><g><g><g><path d="m215 335.781h82v76.282h-82z" fill="#8d9ca8"/><g><path d="m215 335.781h30v76.282h-30z" fill="#7a8c98"/></g><path d="m243 358.737c0 7.18 5.82 13 13 13s13-5.82 13-13v-22.955h-26z" fill="#01d0fb"/><g><path d="m494.5 335.781h-477c-5.523 0-10-4.477-10-10v-259.562c0-5.523 4.477-10 10-10h477c5.523 0 10 4.477 10 10v259.563c0 5.522-4.477 9.999-10 9.999z" fill="#b6c4cf"/></g><g><path d="m68 325.781v-15h-32.5c-1.657 0-3-1.343-3-3v-223.562c0-1.657 1.343-3 3-3h32.5v-15c0-5.523 4.477-10 10-10h-60.5c-5.523 0-10 4.477-10 10v259.563c0 5.523 4.477 10 10 10h60.5c-5.523-.001-10-4.478-10-10.001z" fill="#9facba"/></g><g><path d="m32.5 307.781v-223.562c0-1.657 1.343-3 3-3h441c1.657 0 3 1.343 3 3v223.563c0 1.657-1.343 3-3 3h-441c-1.657-.001-3-1.344-3-3.001z" fill="#c8effe"/></g><g><path d="m80 307.781v-223.562c0-1.657 1.343-3 3-3h-47.5c-1.657 0-3 1.343-3 3v223.563c0 1.657 1.343 3 3 3h47.5c-1.657-.001-3-1.344-3-3.001z" fill="#99e6fc"/></g><g><path d="m476.5 81.219h-441c-1.657 0-3 1.343-3 3v23h447v-23c0-1.657-1.343-3-3-3z" fill="#08a9f1"/></g><g><path d="m80 84.219c0-1.657 1.343-3 3-3h-47.5c-1.657 0-3 1.343-3 3v23h47.5z" fill="#0290cf"/></g><path d="m312 208.219c-23.224 7.741-44.159 16.009-63.734 23.969 82.912 32.867 139.21 64.197 231.234 37.422v-63.57c-38.44-16.147-93.047-22.639-167.5 2.179z" fill="#09a755"/><g><path d="m402.463 455.781h-292.926c-5.523 0-10-4.477-10-10v-23.718c0-5.523 4.477-10 10-10h292.926c5.523 0 10 4.477 10 10v23.718c0 5.523-4.477 10-10 10z" fill="#b6c4cf"/></g><g><path d="m161.074 445.781v-23.718c0-5.523 4.477-10 10-10h-61.537c-5.523 0-10 4.477-10 10v23.718c0 5.523 4.477 10 10 10h61.537c-5.523 0-10-4.477-10-10z" fill="#9facba"/></g></g><path d="m445 277.268v1.732c0 1.657-1.343 3-3 3h-81c-1.657 0-3-1.343-3-3v-6.344c-48.13-11.977-94.533-37.062-158-58.218-74.453-24.818-129.06-18.326-167.5-2.179v95.523c0 1.657 1.343 3 3 3h441c1.657 0 3-1.343 3-3v-38.172c-12.068 3.511-23.52 6.018-34.5 7.658z" fill="#00c27a"/><g><path d="m80 307.781v-108.122c-17.999 2.319-33.785 6.839-47.5 12.6v95.523c0 1.657 1.343 3 3 3h47.5c-1.657-.001-3-1.344-3-3.001z" fill="#08b865"/></g><g><circle cx="86" cy="150" fill="#fed402" r="18"/></g><g><path d="m83 150c0-7.261 4.308-13.502 10.5-16.348-2.286-1.05-4.82-1.652-7.5-1.652-9.941 0-18 8.059-18 18s8.059 18 18 18c2.68 0 5.214-.602 7.5-1.652-6.192-2.846-10.5-9.087-10.5-16.348z" fill="#fac600"/></g></g><g><g><path d="m442 208h-81c-1.657 0-3-1.343-3-3v-44.935c0-1.657 1.343-3 3-3h81c1.657 0 3 1.343 3 3v44.935c0 1.657-1.343 3-3 3z" fill="#fff"/></g><g><path d="m388 205v-44.935c0-1.657 1.343-3 3-3h-30c-1.657 0-3 1.343-3 3v44.935c0 1.657 1.343 3 3 3h30c-1.657 0-3-1.343-3-3z" fill="#e8edf2"/></g><g><path d="m442 282h-81c-1.657 0-3-1.343-3-3v-44.935c0-1.657 1.343-3 3-3h81c1.657 0 3 1.343 3 3v44.935c0 1.657-1.343 3-3 3z" fill="#fff"/></g><g><path d="m388 279v-44.935c0-1.657 1.343-3 3-3h-30c-1.657 0-3 1.343-3 3v44.935c0 1.657 1.343 3 3 3h30c-1.657 0-3-1.343-3-3z" fill="#e8edf2"/></g></g><g><path d="m494.5 48.719h-477c-9.649 0-17.5 7.851-17.5 17.5v259.563c0 9.649 7.851 17.5 17.5 17.5h190v61.282h-97.963c-9.649 0-17.5 7.851-17.5 17.5v23.718c0 9.649 7.851 17.5 17.5 17.5h292.926c9.649 0 17.5-7.851 17.5-17.5v-23.718c0-9.649-7.851-17.5-17.5-17.5h-33.463c-4.142 0-7.5 3.358-7.5 7.5s3.358 7.5 7.5 7.5h33.463c1.378 0 2.5 1.122 2.5 2.5v23.718c0 1.378-1.122 2.5-2.5 2.5h-292.926c-1.378 0-2.5-1.122-2.5-2.5v-23.718c0-1.378 1.122-2.5 2.5-2.5h224.463c4.142 0 7.5-3.358 7.5-7.5s-3.358-7.5-7.5-7.5h-29.5v-61.282h190c9.649 0 17.5-7.851 17.5-17.5v-259.563c0-9.65-7.851-17.5-17.5-17.5zm-244 294.562h11v15.456c0 3.033-2.467 5.5-5.5 5.5s-5.5-2.467-5.5-5.5zm39 61.282h-67v-61.282h13v15.456c0 11.304 9.196 20.5 20.5 20.5s20.5-9.196 20.5-20.5v-15.456h13zm207.5-78.782c0 1.378-1.122 2.5-2.5 2.5h-477c-1.378 0-2.5-1.122-2.5-2.5v-259.562c0-1.378 1.122-2.5 2.5-2.5h477c1.378 0 2.5 1.122 2.5 2.5z"/><path d="m86 124.5c-14.061 0-25.5 11.439-25.5 25.5s11.439 25.5 25.5 25.5 25.5-11.439 25.5-25.5-11.439-25.5-25.5-25.5zm0 36c-5.79 0-10.5-4.71-10.5-10.5s4.71-10.5 10.5-10.5 10.5 4.71 10.5 10.5-4.71 10.5-10.5 10.5z"/><path d="m350.5 134c0 4.142 3.358 7.5 7.5 7.5h87c4.142 0 7.5-3.358 7.5-7.5s-3.358-7.5-7.5-7.5h-87c-4.142 0-7.5 3.358-7.5 7.5z"/><path d="m476.5 73.719h-441c-5.79 0-10.5 4.71-10.5 10.5v223.563c0 5.79 4.71 10.5 10.5 10.5h441c5.79 0 10.5-4.71 10.5-10.5v-223.563c0-5.79-4.71-10.5-10.5-10.5zm-4.5 190.19c-6.603 1.781-13.089 3.252-19.5 4.451v-34.296c0-5.79-4.71-10.5-10.5-10.5h-81c-5.79 0-10.5 4.71-10.5 10.5v28.818c-23.129-6.567-46.245-16.008-71.979-26.54-3.36-1.375-6.74-2.758-10.142-4.144 14.451-5.706 29.575-11.393 45.993-16.865 12.352-4.118 24.402-7.434 36.146-9.977.19 5.624 4.813 10.143 10.482 10.143h81c5.79 0 10.5-4.71 10.5-10.5v-.082c6.666 1.688 13.17 3.745 19.5 6.186zm-34.5-25.344v35.935h-72v-35.935zm-72-38.065v-35.935h72v35.935zm106.5-100.781h-55c-4.142 0-7.5 3.358-7.5 7.5s3.358 7.5 7.5 7.5h55v80.431c-6.356-2.225-12.858-4.105-19.5-5.651v-29.434c0-5.79-4.71-10.5-10.5-10.5h-81c-5.79 0-10.5 4.71-10.5 10.5v29.973c-13.274 2.732-26.898 6.407-40.872 11.065-22.405 7.468-42.353 15.282-61.397 23.003-14.378-5.666-29.459-11.318-45.86-16.784-19.612-6.537-38.881-11.235-57.271-13.963-4.097-.607-7.912 2.221-8.52 6.318s2.221 7.912 6.318 8.52c17.529 2.6 35.942 7.094 54.729 13.356 27.775 9.258 51.89 19.128 75.21 28.672 27.258 11.156 52.274 21.377 77.661 28.244v.531c0 5.79 4.71 10.5 10.5 10.5h81c4.035 0 7.541-2.292 9.298-5.639 6.716-1.156 13.605-2.618 20.702-4.429v23.849h-431.998v-85.957c20.987-8.078 44.137-12.092 68.938-11.863 4.103.011 7.527-3.296 7.562-7.438.034-4.142-3.296-7.527-7.438-7.562-24.615-.179-47.771 3.486-69.062 10.918v-86.66h342c4.142 0 7.5-3.358 7.5-7.5s-3.358-7.5-7.5-7.5h-342v-11h432z"/></g></g></svg>