<svg id="Capa_1" enable-background="new 0 0 512 512" height="512" viewBox="0 0 512 512" width="512" xmlns="http://www.w3.org/2000/svg"><g><path d="m367.737 27.106h-223.474c-2.761 0-5 2.239-5 5v29.271h233.474v-29.271c0-2.762-2.238-5-5-5z" fill="#f5f8f9"/><path d="m185.526 32.106c0-2.761 2.239-5 5-5h-46.263c-2.761 0-5 2.239-5 5v29.271h46.263z" fill="#d9e7ec"/><path d="m139.263 61.376h233.474v154.072h-233.474z" fill="#d9e7ec"/><g><path d="m139.263 61.376h46.263v34.271h-46.263z" fill="#b6c4cf"/></g><g fill="#8d9ca8"><path d="m99.94 161.932c-8.284 0-15 6.716-15 15v38.516h54.323v-53.516z"/><path d="m412.061 161.932h-39.323v53.516h54.323v-38.516c0-8.284-6.716-15-15-15z"/></g><path d="m115.879 215.448v-38.516c0-8.284 6.716-15 15-15h-30.939c-8.284 0-15 6.716-15 15v38.516z" fill="#7a8c98"/><path d="m139.263 95.647h233.474v119.801h-233.474z" fill="#f5f8f9"/><path d="m139.263 95.647h46.263v119.801h-46.263z" fill="#d9e7ec"/><g fill="#596c76"><path d="m8.5 279.96h109.958v-64.512h-85.958c-13.807 0-25 11.193-25 25v158.773c0 1.556.366 3.023 1 4.337z"/><path d="m479.5 215.448h-85.958v64.512h109.958v123.598c.634-1.313 1-2.781 1-4.337v-158.773c0-13.807-11.193-25-25-25z"/></g><path d="m53 240.448c0-13.807 11.193-25 25-25h-45.5c-13.807 0-25 11.193-25 25v38.512h45.5z" fill="#465a61"/><path d="m393.542 278.96v23.112c0 11.046-8.954 20-20 20h-235.084c-11.046 0-20-8.954-20-20v-23.112h-110.958v150.723c0 5.523 4.477 10 10 10h121.763v-34.136h233.474v34.136h121.763c5.523 0 10-4.477 10-10v-150.723z" fill="#8d9ca8"/><g><path d="m53 429.683v-150.723h-45.5v150.723c0 5.523 4.477 10 10 10h45.5c-5.523 0-10-4.477-10-10z" fill="#7a8c98"/></g><path d="m395.854 368.557h-279.708c-9.575 0-17.337 7.762-17.337 17.337v53.789h40.453v-34.136h233.474v34.136h40.453v-53.789c.002-9.575-7.76-17.337-17.335-17.337z" fill="#596c76"/><path d="m150.809 368.557h-34.663c-9.575 0-17.337 7.762-17.337 17.337v53.789h34.663v-53.789c0-9.575 7.762-17.337 17.337-17.337z" fill="#465a61"/><g><g><path d="m367.737 484.894h-223.474c-2.761 0-5-2.239-5-5v-74.348h233.474v74.348c0 2.762-2.238 5-5 5z" fill="#f5f8f9"/></g><g><path d="m185.526 479.894v-74.348h-46.263v74.348c0 2.761 2.239 5 5 5h46.263c-2.762 0-5-2.238-5-5z" fill="#d9e7ec"/></g></g><g><path d="m373.542 322.072h-235.084c-11.046 0-20-8.954-20-20v-86.624h275.084v86.624c0 11.046-8.954 20-20 20z" fill="#99e6fc"/></g><g><path d="m164.916 302.072v-86.624h-46.458v86.624c0 11.046 8.954 20 20 20h46.458c-11.045 0-20-8.954-20-20z" fill="#62dbfb"/></g><g><g><path d="m307.55 294.622h-87.088c-2.761 0-5-2.239-5-5v-41.145c0-2.761 2.239-5 5-5h87.088c2.761 0 5 2.239 5 5v41.145c0 2.761-2.239 5-5 5z" fill="#01d0fb"/></g><g><path d="m246 289.622v-41.145c0-2.761 2.239-5 5-5h-30.538c-2.761 0-5 2.239-5 5v41.145c0 2.761 2.239 5 5 5h30.538c-2.761 0-5-2.239-5-5z" fill="#01c0fa"/></g><g><circle cx="167.495" cy="269.049" fill="#8d9ca8" r="22.538"/></g><g><path d="m164 269.049c0-9.044 5.329-16.839 13.017-20.429-2.893-1.351-6.118-2.11-9.521-2.11-12.448 0-22.538 10.091-22.538 22.538 0 12.448 10.091 22.538 22.538 22.538 3.404 0 6.628-.759 9.521-2.11-7.688-3.587-13.017-11.383-13.017-20.427z" fill="#7a8c98"/></g></g><g><path d="m320.713 444.441c0-4.142-3.357-7.5-7.5-7.5h-114.426c-4.142 0-7.5 3.358-7.5 7.5s3.358 7.5 7.5 7.5h114.426c4.142 0 7.5-3.358 7.5-7.5z"/><path d="m479.5 207.948h-44.939v-31.016c0-12.407-10.094-22.5-22.5-22.5h-31.823v-122.326c0-6.893-5.607-12.5-12.5-12.5h-223.475c-6.893 0-12.5 5.607-12.5 12.5v122.326h-31.824c-12.407 0-22.5 10.093-22.5 22.5v31.016h-44.939c-17.92 0-32.5 14.58-32.5 32.5v38.512 120.261 30.461c0 9.649 7.851 17.5 17.5 17.5h114.263v32.711c0 6.893 5.607 12.5 12.5 12.5h53.737c4.142 0 7.5-3.358 7.5-7.5s-3.358-7.5-7.5-7.5h-51.237v-64.347h218.475v64.347h-132.238c-4.142 0-7.5 3.358-7.5 7.5s3.358 7.5 7.5 7.5h134.737c6.893 0 12.5-5.607 12.5-12.5v-32.711h114.263c9.649 0 17.5-7.851 17.5-17.5v-30.461-120.261-38.512c0-17.92-14.579-32.5-32.5-32.5zm-99.263-1.316v-37.2h31.823c4.136 0 7.5 3.365 7.5 7.5v31.016h-39.323zm-233.474-172.026h218.475v19.271h-218.475zm0 68.541h147.237c4.143 0 7.5-3.358 7.5-7.5s-3.357-7.5-7.5-7.5h-147.237v-19.271h218.475v19.271h-36.238c-4.143 0-7.5 3.358-7.5 7.5s3.357 7.5 7.5 7.5h36.237v104.801h-218.474zm239.279 119.801v79.124c0 6.893-5.607 12.5-12.5 12.5h-235.084c-6.893 0-12.5-5.607-12.5-12.5v-79.124zm-293.603-46.016c0-4.135 3.364-7.5 7.5-7.5h31.823v37.2 1.316h-39.323zm-77.439 63.516c0-9.649 7.851-17.5 17.5-17.5h78.458v48.512h-95.958zm116.763 191.735h-25.454v-19.136h25.454zm273.927 0h-25.453v-19.136h25.453zm0-34.136h-32.953-233.474-32.954v-12.153c0-5.424 4.413-9.837 9.837-9.837h279.707c5.424 0 9.837 4.413 9.837 9.837zm91.31-126.587h-28c-4.143 0-7.5 3.358-7.5 7.5s3.357 7.5 7.5 7.5h28v143.223c0 1.378-1.121 2.5-2.5 2.5h-73.81v-46.289c0-13.695-11.142-24.837-24.837-24.837h-279.707c-13.695 0-24.837 11.142-24.837 24.837v46.289h-73.809c-1.378 0-2.5-1.122-2.5-2.5v-143.223h95.958v15.612c0 15.164 12.336 27.5 27.5 27.5h235.084c15.163 0 27.5-12.336 27.5-27.5v-15.612h32.958c4.143 0 7.5-3.358 7.5-7.5s-3.357-7.5-7.5-7.5h-32.958v-48.512h78.458c9.649 0 17.5 7.851 17.5 17.5z"/><path d="m220.461 302.122h87.088c6.893 0 12.5-5.607 12.5-12.5v-41.145c0-6.893-5.607-12.5-12.5-12.5h-87.088c-6.893 0-12.5 5.607-12.5 12.5v41.145c0 6.892 5.608 12.5 12.5 12.5zm2.5-51.145h82.088v36.145h-82.088z"/><path d="m167.495 299.087c16.563 0 30.039-13.475 30.039-30.038s-13.475-30.039-30.039-30.039c-16.563 0-30.038 13.475-30.038 30.039 0 16.563 13.475 30.038 30.038 30.038zm0-45.076c8.292 0 15.039 6.746 15.039 15.039 0 8.292-6.746 15.038-15.039 15.038-8.292 0-15.038-6.746-15.038-15.038 0-8.293 6.746-15.039 15.038-15.039z"/><circle cx="338.543" cy="245.933" r="7.5"/><circle cx="359.543" cy="245.933" r="7.5"/><circle cx="338.543" cy="269.049" r="7.5"/><circle cx="359.543" cy="269.049" r="7.5"/><circle cx="338.543" cy="292.165" r="7.5"/><circle cx="359.543" cy="292.165" r="7.5"/></g></g></svg>