<svg id="Capa_1" enable-background="new 0 0 512 512" height="512" viewBox="0 0 512 512" width="512" xmlns="http://www.w3.org/2000/svg"><g><path d="m453.122 366.619v-252.829c0-5.523-4.477-10-10-10h-374.244c-5.523 0-10 4.477-10 10v252.83h394.244z" fill="#596c76"/><path d="m120.755 340.406h-30.664c-2.761 0-5-2.239-5-5v-200.403c0-2.761 2.239-5 5-5h30.665v-16.213c0-5.523 4.477-10 10-10h-61.878c-5.523 0-10 4.477-10 10v252.83h61.878v-26.214z" fill="#465a61"/><g><path d="m85.091 335.406v-200.403c0-2.761 2.239-5 5-5h331.819c2.761 0 5 2.239 5 5v200.403c0 2.761-2.239 5-5 5h-331.819c-2.762 0-5-2.238-5-5z" fill="#c8effe"/></g><path d="m115.352 254.777c-1.657 0-3-1.343-3-3v-31.747c0-1.657 1.343-3 3-3h15.829v-22.019h-15.829c-1.657 0-3-1.343-3-3v-31.747c0-1.657 1.343-3 3-3h15.829v-22.262c0-2.761 2.239-5 5-5h-46.09c-2.761 0-5 2.239-5 5v164.123c9.434 1.508 18.482 2.184 27.262 2.157v-21.487c0-1.657 1.343-3 3-3h15.829v-22.019h-15.83z" fill="#99e6fc"/><path d="m304.607 232.867c-62.475 24.116-106.692 53.1-154.508 63.995v14.68c0 1.657-1.343 3-3 3h-31.747c-1.657 0-3-1.343-3-3v-10.259c-8.78.025-17.828-.651-27.262-2.159v36.281c0 2.761 2.239 5 5 5h331.818c2.761 0 5-2.239 5-5v-115.374c-31.679-7.715-71.981-6.588-122.301 12.836z" fill="#00c27a"/><path d="m131.181 335.406v-20.864h-15.829c-1.657 0-3-1.343-3-3v-10.26c-8.779.027-17.828-.65-27.262-2.157v36.281c0 2.761 2.239 5 5 5h46.09c-2.761 0-4.999-2.239-4.999-5z" fill="#08b865"/><g><g><path d="m147.099 195.011h-31.747c-1.657 0-3-1.343-3-3v-31.747c0-1.657 1.343-3 3-3h31.747c1.657 0 3 1.343 3 3v31.747c0 1.657-1.343 3-3 3z" fill="#fff"/></g><g><path d="m128 192.011v-31.747c0-1.657 1.343-3 3-3h-15.648c-1.657 0-3 1.343-3 3v31.747c0 1.657 1.343 3 3 3h15.648c-1.657 0-3-1.343-3-3z" fill="#e8edf2"/></g><g><path d="m147.099 254.777h-31.747c-1.657 0-3-1.343-3-3v-31.747c0-1.657 1.343-3 3-3h31.747c1.657 0 3 1.343 3 3v31.747c0 1.657-1.343 3-3 3z" fill="#fff"/></g><g><path d="m128 251.777v-31.747c0-1.657 1.343-3 3-3h-15.648c-1.657 0-3 1.343-3 3v31.747c0 1.657 1.343 3 3 3h15.648c-1.657 0-3-1.343-3-3z" fill="#e8edf2"/></g><g><path d="m147.099 314.543h-31.747c-1.657 0-3-1.343-3-3v-31.747c0-1.657 1.343-3 3-3h31.747c1.657 0 3 1.343 3 3v31.747c0 1.657-1.343 3-3 3z" fill="#fff"/></g><g><path d="m128 311.543v-31.747c0-1.657 1.343-3 3-3h-15.648c-1.657 0-3 1.343-3 3v31.747c0 1.657 1.343 3 3 3h15.648c-1.657 0-3-1.343-3-3z" fill="#e8edf2"/></g></g><g><g><path d="m494.5 366.619h-477c-5.523 0-10 4.477-10 10v21.591c0 5.523 4.477 10 10 10h477c5.523 0 10-4.477 10-10v-21.591c0-5.522-4.477-10-10-10z" fill="#8d9ca8"/></g><g><path d="m68 398.211v-21.592c0-5.523 4.477-10 10-10h-60.5c-5.523 0-10 4.477-10 10v21.592c0 5.523 4.477 10 10 10h60.5c-5.523 0-10-4.477-10-10z" fill="#7a8c98"/></g><g><path d="m188 366.62h136v41.591h-136z" fill="#d9e7ec"/></g><g><path d="m188 366.62h30v41.591h-30z" fill="#c5d3dd"/></g></g><g><path d="m426.909 262.5c4.143 0 7.5-3.358 7.5-7.5v-119.997c0-6.893-5.607-12.5-12.5-12.5h-331.818c-6.893 0-12.5 5.607-12.5 12.5v200.403c0 6.893 5.607 12.5 12.5 12.5h331.818c6.893 0 12.5-5.607 12.5-12.5v-45.406c0-4.142-3.357-7.5-7.5-7.5s-7.5 3.358-7.5 7.5v42.906h-326.818v-25.224c4.147.46 8.237.784 12.262.946v2.914c0 5.79 4.71 10.5 10.5 10.5h31.747c5.79 0 10.5-4.71 10.5-10.5v-8.87c27.329-7.051 53.482-19.415 81.714-32.793 21.091-9.994 42.898-20.328 67.995-30.016 41.098-15.864 78.771-20.496 112.101-13.809v28.946c-.001 4.142 3.357 7.5 7.499 7.5zm-284.309 44.543h-22.747v-22.747h22.747zm159.306-81.172c-25.615 9.888-47.679 20.343-69.016 30.454-26.928 12.76-50.92 24.104-75.291 30.881v-7.41c0-5.79-4.71-10.5-10.5-10.5h-31.747c-5.79 0-10.5 4.71-10.5 10.5v13.816c-4.02-.177-8.107-.523-12.262-1.023v-155.086h326.818v73.289c-35.411-6.424-74.882-1.374-117.502 15.079z"/><path d="m147.1 149.764h-31.747c-5.79 0-10.5 4.71-10.5 10.5v31.747c0 5.79 4.71 10.5 10.5 10.5h31.747c5.79 0 10.5-4.71 10.5-10.5v-31.747c0-5.789-4.71-10.5-10.5-10.5zm-4.5 37.747h-22.747v-22.747h22.747z"/><path d="m147.1 209.53h-31.747c-5.79 0-10.5 4.71-10.5 10.5v31.747c0 5.79 4.71 10.5 10.5 10.5h31.747c5.79 0 10.5-4.71 10.5-10.5v-31.747c0-5.79-4.71-10.5-10.5-10.5zm-4.5 37.747h-22.747v-22.747h22.747z"/><path d="m371 307.043c-4.143 0-7.5 3.358-7.5 7.5s3.357 7.5 7.5 7.5h27c4.143 0 7.5-3.358 7.5-7.5s-3.357-7.5-7.5-7.5z"/><circle cx="400.5" cy="154.333" r="7.5"/><circle cx="380.5" cy="154.333" r="7.5"/><circle cx="360.5" cy="154.333" r="7.5"/><path d="m494.5 359.119h-33.878v-245.33c0-9.649-7.851-17.5-17.5-17.5h-259.122c-4.143 0-7.5 3.358-7.5 7.5s3.357 7.5 7.5 7.5h259.122c1.379 0 2.5 1.122 2.5 2.5v245.33h-379.244v-245.33c0-1.378 1.121-2.5 2.5-2.5h80.122c4.143 0 7.5-3.358 7.5-7.5s-3.357-7.5-7.5-7.5h-80.122c-9.649 0-17.5 7.851-17.5 17.5v245.33h-33.878c-9.649 0-17.5 7.851-17.5 17.5v21.591c0 9.649 7.851 17.5 17.5 17.5h78.5c4.143 0 7.5-3.358 7.5-7.5s-3.357-7.5-7.5-7.5h-78.5c-1.379 0-2.5-1.122-2.5-2.5v-21.591c0-1.378 1.121-2.5 2.5-2.5h163v26.591h-49.5c-4.143 0-7.5 3.358-7.5 7.5s3.357 7.5 7.5 7.5h363.5c9.649 0 17.5-7.851 17.5-17.5v-21.591c0-9.649-7.851-17.5-17.5-17.5zm-299 15h121v26.591h-121zm301.5 24.092c0 1.378-1.121 2.5-2.5 2.5h-163v-26.591h163c1.379 0 2.5 1.122 2.5 2.5z"/><circle cx="476.5" cy="387.415" r="7.5"/><circle cx="453.5" cy="387.415" r="7.5"/></g></g></svg>