<svg id="Capa_1" enable-background="new 0 0 512 512" height="512" viewBox="0 0 512 512" width="512" xmlns="http://www.w3.org/2000/svg"><g><path d="m440.96 414.647 50.994-195.734 15.539-10.876c-9.64-50.835-34.297-96.353-69.201-131.754l-15.875 4.587-43.908-38.117v-11.585c-36.389-19.87-78.128-31.168-122.509-31.168s-86.12 11.298-122.508 31.168l-.04 7.98-43.268 37.135h-16.475c-34.904 35.401-59.561 80.919-69.201 131.754l15.625 17.057 49.449 185.947-2.2 18.028c46.793 50.972 113.97 82.931 188.618 82.931s141.825-31.959 188.62-82.93z" fill="#dbedff"/><path d="m76.27 256c0-128.426 94.571-234.756 217.869-253.17-12.444-1.859-25.178-2.83-38.139-2.83-44.381 0-86.12 11.298-122.508 31.168l-.04 7.98-43.268 37.135h-16.475c-34.904 35.401-59.561 80.919-69.201 131.754l15.625 17.057 49.449 185.947-2.2 18.028c46.793 50.972 113.97 82.931 188.618 82.931 12.945 0 25.658-.983 38.087-2.837-123.273-18.437-217.817-124.755-217.817-253.163z" fill="#b5dcff"/><path d="m432.032 116.264-21.057 3.371-86.16-63.29-6.03-16.222c-19.925-5.786-40.992-8.89-62.784-8.89s-42.859 3.104-62.784 8.89l-.014 16.222-68.716 47.299c-23.918 32.242-40.436 70.296-47.044 111.664h394.423l3.755-7.272c-7.421-34.132-22.602-65.363-43.589-91.772z" fill="#60b9fe"/><g><path d="m128.76 100.703-22.608 15.562h-26.184c-20.987 26.409-36.168 57.64-43.588 91.772l13.627 7.272h29.495c6.81-42.633 24.145-81.747 49.258-114.606z" fill="#1ca8ff"/></g><path d="m177.463 37.059c-27.904-2.761-52.839-7.135-72.577-11.343l-6.976 8.796 26.27 129.287 53.913 33.996h21.634l8.487-2.219c13.267-8.155 24.403-19.354 32.471-32.681l.001-.001c31.742-52.426-2.234-119.8-63.223-125.835z" fill="#97dc7c"/><path d="m121.338 120.342c-3.928-39.692-11.116-73.368-16.451-94.626-15.487-3.302-27.776-6.502-35.78-8.74-4.493-1.256-8.63 2.876-7.374 7.369 5.09 18.203 15.156 58.556 20.084 108.359 6.035 60.99 73.409 94.965 125.837 63.223.189-.114.373-.235.56-.351-42.073 2.013-82.279-28.766-86.876-75.234z" fill="#6bcb44"/><path d="m121.338 120.342c-3.928-39.692-11.116-73.368-16.451-94.626-15.487-3.302-27.776-6.502-35.78-8.74-4.493-1.256-8.63 2.876-7.374 7.369 5.09 18.203 15.156 58.556 20.084 108.359 6.035 60.99 73.409 94.965 125.837 63.223.189-.114.373-.235.56-.351-42.073 2.013-82.279-28.766-86.876-75.234z" fill="#6bcb44"/><path d="m435.465 50.651-127.055 22.664-29.532 55.973 3.348 39.748 11.891 19.761c3.247 2.582 6.659 4.969 10.229 7.13 52.427 31.742 119.802-2.234 125.837-63.223 3.089-31.216 8.196-58.717 12.831-79.381z" fill="#97dc7c"/><path d="m359.661 67.06c33.266-3.291 62.304-8.874 83.353-13.737 2.76-12.304 5.353-22.185 7.253-28.978 1.257-4.493-2.881-8.625-7.374-7.369-18.205 5.091-58.557 15.156-108.357 20.083-60.989 6.034-94.964 73.409-63.223 125.836v.001c6.022 9.946 13.755 18.705 22.803 25.901-27.633-51.774 6.133-115.859 65.545-121.737z" fill="#6bcb44"/><g fill="#42ab20"><path d="m271.016 215.331-59.654-59.654c-.654-.654-.703-1.687-.136-2.417 10.906-14.022 15.433-29.945 13.986-45.98-.383-4.25-4.133-7.377-8.389-7.001-4.25.383-7.384 4.139-7.001 8.389 1.033 11.452-1.956 22.786-9.303 33.117-.661.929-1.989 1.06-2.795.254l-17.666-17.666c-.643-.643-.702-1.656-.16-2.387 8.454-11.42 11.993-24.315 10.915-37.235-.333-3.994-3.509-7.31-7.515-7.403-4.701-.109-8.318 3.873-7.907 8.42.752 8.323-1.164 16.702-6.226 24.563-.632.982-2.012 1.137-2.838.311l-17.337-17.337c-.621-.621-.698-1.588-.213-2.319 5.351-8.071 7.563-17.028 6.746-26.081-.383-4.249-4.14-7.379-8.389-7.001-4.25.384-7.384 4.14-7.001 8.389.389 4.307-.373 8.588-2.2 12.537-.525 1.136-2.046 1.372-2.931.487l-20.558-20.557c-2.991-2.991-7.905-3.295-10.986-.395-3.187 3.001-3.244 8.019-.171 11.092l20.787 20.787c.885.885.649 2.405-.487 2.931-3.95 1.827-8.231 2.59-12.537 2.2-4.523-.405-8.508 3.185-8.42 7.868.075 4.027 3.409 7.232 7.423 7.556 8.971.724 17.765-1.526 25.689-6.779.732-.485 1.698-.408 2.319.213l17.338 17.338c.826.826.671 2.206-.311 2.838-7.881 5.072-16.256 6.975-24.562 6.225-4.538-.413-8.531 3.208-8.419 7.91.096 4.011 3.423 7.182 7.421 7.514 13.049 1.083 25.892-2.535 37.216-10.917.731-.542 1.744-.482 2.387.161l17.666 17.666c.806.806.675 2.134-.254 2.795-10.313 7.333-21.641 10.338-33.117 9.302-4.539-.405-8.537 3.212-8.419 7.919.098 3.936 3.308 7.147 7.229 7.489 15.703 1.369 31.586-2.962 45.78-14.002.73-.568 1.765-.518 2.419.136l59.423 59.423c2.991 2.991 7.905 3.295 10.986.395 3.188-3.003 3.245-8.021.172-11.094z"/><path d="m400.609 95.402c-4.189.319-8.346-.448-12.19-2.224-1.139-.526-1.38-2.049-.492-2.936l20.785-20.785c3.073-3.073 3.017-8.091-.171-11.092-3.08-2.9-7.994-2.596-10.986.395l-20.555 20.555c-.887.887-2.409.647-2.936-.492-1.786-3.865-2.553-8.047-2.22-12.26.305-3.852-2.045-7.544-5.798-8.462-4.7-1.15-9.151 2.162-9.57 6.804-.812 8.997 1.363 17.961 6.746 26.081.485.732.408 1.698-.213 2.319l-17.337 17.337c-.826.826-2.206.67-2.839-.313-5.048-7.844-6.956-16.18-6.234-24.447.333-3.814-2.149-7.443-5.875-8.322-4.68-1.104-9.088 2.2-9.505 6.819-1.175 13.02 2.333 26.055 10.883 37.605.542.732.483 1.746-.161 2.39l-17.663 17.663c-.804.804-2.134.68-2.792-.247-7.288-10.246-10.302-21.497-9.327-32.895.355-4.149-2.534-8.04-6.662-8.582-4.38-.575-8.315 2.609-8.708 6.966-1.444 16.003 3.056 31.927 13.986 45.98.568.73.518 1.764-.136 2.417l-59.72 59.72c-3.073 3.073-3.017 8.091.171 11.092 3.08 2.9 7.994 2.596 10.986-.395l59.489-59.489c.654-.654 1.689-.704 2.419-.136 13.988 10.878 29.845 15.393 45.785 14.002 3.922-.342 7.128-3.555 7.224-7.49.115-4.707-3.866-8.32-8.419-7.917-11.126 1.004-22.52-1.767-33.115-9.301-.93-.661-1.063-1.989-.256-2.796l17.667-17.667c.643-.643 1.656-.702 2.387-.161 11.522 8.529 24.44 11.983 37.242 10.915 3.994-.334 7.306-3.516 7.395-7.523.104-4.698-3.876-8.3-8.419-7.899-8.343.752-16.713-1.173-24.563-6.225-.982-.632-1.137-2.012-.311-2.838l17.337-17.337c.621-.621 1.587-.697 2.319-.213 8.191 5.428 17.171 7.551 26.081 6.745 4.381-.396 7.577-4.375 6.955-8.785-.584-4.137-4.517-6.893-8.684-6.576z"/></g><path d="m387.39 423.919h-250.412c15.975 18.368 34.536 34.418 55.1 47.624 20.261 6.001 41.715 9.224 63.922 9.224 54.516 0 104.494-19.413 143.411-51.697z" fill="#60b9fe"/><path d="m139.038 423.919h-19.54l-6.91 5.151c24.022 19.927 52.262 34.942 83.178 43.523-21.215-13.4-40.33-29.821-56.728-48.674z" fill="#1ca8ff"/><path d="m0 256c0 66.737 25.545 127.501 67.38 173.07h377.24c41.835-45.569 67.38-106.333 67.38-173.07 0-16.396-1.56-32.425-4.506-47.964h-502.988c-2.946 15.539-4.506 31.568-4.506 47.964z" fill="#6bcb44"/><path d="m76.27 256c0-16.396 1.56-32.425 4.506-47.964h-76.27c-2.946 15.539-4.506 31.568-4.506 47.964 0 66.737 25.545 127.501 67.38 173.07h76.27c-41.835-45.569-67.38-106.333-67.38-173.07z" fill="#4dc321"/><g fill="#dbedff"><path d="m256 309.437c17.588 0 31.897-17.532 31.897-39.08 0-21.549-14.309-39.081-31.897-39.081s-31.897 17.532-31.897 39.081c0 21.548 14.309 39.08 31.897 39.08zm0-62.709c8.914 0 16.445 10.82 16.445 23.628 0 12.807-7.531 23.628-16.445 23.628s-16.445-10.82-16.445-23.628c0-12.807 7.531-23.628 16.445-23.628z"/><path d="m310.487 263.977 28.803 42.097c4.269 6.239 14.103 3.217 14.103-4.363v-62.708c0-4.267-3.459-7.726-7.726-7.726s-7.726 3.459-7.726 7.726v37.734l-28.803-42.097c-4.27-6.239-14.103-3.217-14.103 4.363v62.708c0 4.267 3.459 7.726 7.726 7.726s7.726-3.459 7.726-7.726z"/><path d="m166.334 309.437c4.267 0 7.726-3.459 7.726-7.726v-37.734l28.803 42.097c4.293 6.274 14.103 3.202 14.103-4.363v-62.708c0-4.267-3.459-7.726-7.726-7.726s-7.726 3.459-7.726 7.726v37.734l-28.803-42.097c-4.27-6.239-14.103-3.217-14.103 4.363v62.708c0 4.267 3.459 7.726 7.726 7.726z"/><path d="m316.471 325.331c-4.267 0-7.726 3.459-7.726 7.726v62.708c0 4.267 3.459 7.726 7.726 7.726s7.726-3.459 7.726-7.726v-62.708c0-4.267-3.459-7.726-7.726-7.726z"/><path d="m213.414 325.331c-17.588 0-31.897 17.531-31.897 39.08s14.309 39.081 31.897 39.081 31.897-17.532 31.897-39.081-14.308-39.08-31.897-39.08zm0 62.708c-8.913 0-16.444-10.82-16.444-23.628 0-12.807 7.531-23.628 16.444-23.628 8.914 0 16.445 10.82 16.445 23.628s-7.531 23.628-16.445 23.628z"/><path d="m183.984 333.057c0-4.267-3.459-7.726-7.726-7.726h-49.033c-4.267 0-7.726 3.459-7.726 7.726s3.459 7.726 7.726 7.726h16.789v54.982c0 4.267 3.459 7.726 7.726 7.726s7.726-3.459 7.726-7.726v-54.982h16.791c4.268 0 7.727-3.459 7.727-7.726z"/><path d="m297.958 326.623c-3.552-2.362-8.349-1.397-10.712 2.156l-14.411 21.676-14.411-21.676c-2.363-3.553-7.158-4.52-10.712-2.156-3.553 2.363-4.519 7.158-2.156 10.712l18.001 27.077-18.001 27.077c-2.363 3.553-1.397 8.349 2.156 10.712s8.349 1.397 10.712-2.156l14.411-21.676 14.411 21.676c2.362 3.554 7.157 4.519 10.712 2.156 3.553-2.363 4.519-7.158 2.156-10.712l-18.001-27.077 18.001-27.077c2.363-3.554 1.397-8.349-2.156-10.712z"/><path d="m388.08 373.805c-3.856-1.824-8.463-.178-10.289 3.679-3.127 6.61-8.221 10.555-13.624 10.555-8.914 0-16.445-10.82-16.445-23.628 0-12.807 7.531-23.628 16.445-23.628 5.402 0 10.494 3.95 13.622 10.565 1.824 3.859 6.432 5.507 10.287 3.683 3.858-1.823 5.507-6.43 3.683-10.287-5.661-11.974-16.233-19.413-27.591-19.413-17.588 0-31.897 17.531-31.897 39.08s14.309 39.081 31.897 39.081c11.358 0 21.931-7.433 27.592-19.398 1.824-3.858.177-8.464-3.68-10.289z"/></g></g></svg>