<svg id="Capa_1" enable-background="new 0 0 512 512" height="512" viewBox="0 0 512 512" width="512" xmlns="http://www.w3.org/2000/svg"><g><g><path d="m494.5 48.719h-477c-9.649 0-17.5 7.851-17.5 17.5v259.563c0 9.649 7.851 17.5 17.5 17.5h190v61.282h-97.963c-9.649 0-17.5 7.851-17.5 17.5v23.718c0 9.649 7.851 17.5 17.5 17.5h292.926c9.649 0 17.5-7.851 17.5-17.5v-23.718c0-9.649-7.851-17.5-17.5-17.5h-33.463c-4.142 0-7.5 3.358-7.5 7.5s3.358 7.5 7.5 7.5h33.463c1.378 0 2.5 1.122 2.5 2.5v23.718c0 1.378-1.122 2.5-2.5 2.5h-292.926c-1.378 0-2.5-1.122-2.5-2.5v-23.718c0-1.378 1.122-2.5 2.5-2.5h224.463c4.142 0 7.5-3.358 7.5-7.5s-3.358-7.5-7.5-7.5h-29.5v-61.282h190c9.649 0 17.5-7.851 17.5-17.5v-259.563c0-9.65-7.851-17.5-17.5-17.5zm-244 294.562h11v15.456c0 3.033-2.467 5.5-5.5 5.5s-5.5-2.467-5.5-5.5zm39 61.282h-67v-61.282h13v15.456c0 11.304 9.196 20.5 20.5 20.5s20.5-9.196 20.5-20.5v-15.456h13zm207.5-78.782c0 1.378-1.122 2.5-2.5 2.5h-477c-1.378 0-2.5-1.122-2.5-2.5v-259.562c0-1.378 1.122-2.5 2.5-2.5h477c1.378 0 2.5 1.122 2.5 2.5z"/><path d="m86 124.5c-14.061 0-25.5 11.439-25.5 25.5s11.439 25.5 25.5 25.5 25.5-11.439 25.5-25.5-11.439-25.5-25.5-25.5zm0 36c-5.79 0-10.5-4.71-10.5-10.5s4.71-10.5 10.5-10.5 10.5 4.71 10.5 10.5-4.71 10.5-10.5 10.5z"/><path d="m350.5 134c0 4.142 3.358 7.5 7.5 7.5h87c4.142 0 7.5-3.358 7.5-7.5s-3.358-7.5-7.5-7.5h-87c-4.142 0-7.5 3.358-7.5 7.5z"/><path d="m476.5 73.719h-441c-5.79 0-10.5 4.71-10.5 10.5v223.563c0 5.79 4.71 10.5 10.5 10.5h441c5.79 0 10.5-4.71 10.5-10.5v-223.563c0-5.79-4.71-10.5-10.5-10.5zm-4.5 190.19c-6.603 1.781-13.089 3.252-19.5 4.451v-34.296c0-5.79-4.71-10.5-10.5-10.5h-81c-5.79 0-10.5 4.71-10.5 10.5v28.818c-23.129-6.567-46.245-16.008-71.979-26.54-3.36-1.375-6.74-2.758-10.142-4.144 14.451-5.706 29.575-11.393 45.993-16.865 12.352-4.118 24.402-7.434 36.146-9.977.19 5.624 4.813 10.143 10.482 10.143h81c5.79 0 10.5-4.71 10.5-10.5v-.082c6.666 1.688 13.17 3.745 19.5 6.186zm-34.5-25.344v35.935h-72v-35.935zm-72-38.065v-35.935h72v35.935zm106.5-100.781h-55c-4.142 0-7.5 3.358-7.5 7.5s3.358 7.5 7.5 7.5h55v80.431c-6.356-2.225-12.858-4.105-19.5-5.651v-29.434c0-5.79-4.71-10.5-10.5-10.5h-81c-5.79 0-10.5 4.71-10.5 10.5v29.973c-13.274 2.732-26.898 6.407-40.872 11.065-22.405 7.468-42.353 15.282-61.397 23.003-14.378-5.666-29.459-11.318-45.86-16.784-19.612-6.537-38.881-11.235-57.271-13.963-4.097-.607-7.912 2.221-8.52 6.318s2.221 7.912 6.318 8.52c17.529 2.6 35.942 7.094 54.729 13.356 27.775 9.258 51.89 19.128 75.21 28.672 27.258 11.156 52.274 21.377 77.661 28.244v.531c0 5.79 4.71 10.5 10.5 10.5h81c4.035 0 7.541-2.292 9.298-5.639 6.716-1.156 13.605-2.618 20.702-4.429v23.849h-431.998v-85.957c20.987-8.078 44.137-12.092 68.938-11.863 4.103.011 7.527-3.296 7.562-7.438.034-4.142-3.296-7.527-7.438-7.562-24.615-.179-47.771 3.486-69.062 10.918v-86.66h342c4.142 0 7.5-3.358 7.5-7.5s-3.358-7.5-7.5-7.5h-342v-11h432z"/></g></g></svg>